<?xml version="1.0" standalone="no"?>
<!DOCTYPE svg PUBLIC "-//W3C//DTD SVG 20010904//EN"
 "http://www.w3.org/TR/2001/REC-SVG-20010904/DTD/svg10.dtd">
<svg version="1.0" xmlns="http://www.w3.org/2000/svg"
 width="179.000000pt" height="179.000000pt" viewBox="0 0 179.000000 179.000000"
 preserveAspectRatio="xMidYMid meet">
<metadata>
Created by potrace 1.14, written by Peter Selinger 2001-2017
</metadata>
<g transform="translate(0.000000,179.000000) scale(0.100000,-0.100000)"
fill="#000000" stroke="none">
<path d="M685 1756 c-245 -56 -460 -216 -583 -436 -37 -66 -88 -215 -97 -285
l-6 -50 244 -118 244 -119 38 26 c47 32 102 34 139 5 l27 -21 77 64 c307 250
308 251 325 299 21 59 57 84 119 84 53 0 91 -27 114 -81 12 -28 40 -46 213
-133 110 -56 203 -101 207 -101 4 0 4 39 1 88 -23 339 -261 640 -595 752 -90
31 -108 34 -252 36 -106 3 -174 -1 -215 -10z"/>
<path d="M1303 1007 c-30 -50 -108 -61 -164 -23 l-35 24 -191 -156 c-174 -143
-192 -160 -192 -189 -2 -64 -79 -121 -145 -109 -42 8 -92 55 -100 94 -6 24
-32 40 -241 145 l-235 117 0 -68 c1 -131 54 -301 132 -422 54 -83 185 -214
268 -268 36 -23 101 -56 145 -73 130 -50 201 -61 365 -56 131 3 154 7 242 37
314 105 545 380 592 705 l6 40 -209 108 c-115 59 -214 107 -220 107 -5 0 -14
-6 -18 -13z"/>
</g>
</svg>
